HIERARCHY
ROOT hips
{
  OFFSET 0 10.074487846421558 1.314567655973056
  CHANNELS 6 Xposition Yposition Zposition Yrotation Xrotation Zrotation
  JOINT spine
  {
    OFFSET -7.042773748992335e-31 0.5690686926897363 0
    CHANNELS 3 Yrotation Xrotation Zrotation
    JOINT chest
    {
      OFFSET 0 1.2435964857087873 0
      CHANNELS 3 Yrotation Xrotation Zrotation
      JOINT upperChest
      {
        OFFSET 0 1.194994586872362 0
        CHANNELS 3 Yrotation Xrotation Zrotation
        JOINT neck
        {
          OFFSET 0 1.515103653293861 0
          CHANNELS 3 Yrotation Xrotation Zrotation
          JOINT head
          {
            OFFSET 0 0.8111851616465653 0
            CHANNELS 3 Yrotation Xrotation Zrotation
            JOINT leftEye
            {
              OFFSET 0.27141371691966987 0.7490044407698551 0.18219031050045686
              CHANNELS 3 Yrotation Xrotation Zrotation
              End Site
              {
                OFFSET 0.27141371691966987 0.7490044407698551 0.18219031050045686
              }
            }
            JOINT rightEye
            {
              OFFSET -0.2714136877644943 0.7490044019380786 0.18219040411850668
              CHANNELS 3 Yrotation Xrotation Zrotation
              End Site
              {
                OFFSET -0.2714136877644943 0.7490044019380786 0.18219040411850668
              }
            }
          }
        }
        JOINT leftShoulder
        {
          OFFSET 0.4137993136083964 1.1593397335613034 0
          CHANNELS 3 Yrotation Xrotation Zrotation
          JOINT leftUpperArm
          {
            OFFSET 1.0096991868951026 0 0
            CHANNELS 3 Yrotation Xrotation Zrotation
            JOINT leftLowerArm
            {
              OFFSET 2.418380967671622 0 0
              CHANNELS 3 Yrotation Xrotation Zrotation
              JOINT leftHand
              {
                OFFSET 2.361538296260114 0 0
                CHANNELS 3 Yrotation Xrotation Zrotation
                JOINT leftIndexProximal
                {
                  OFFSET 0.7243699271447109 0.08118285989887508 0.2022042461579805
                  CHANNELS 3 Yrotation Xrotation Zrotation
                  JOINT leftIndexIntermediate
                  {
                    OFFSET 0.36553107045252053 -0.010567764853200323 -0.014102670024158437
                    CHANNELS 3 Yrotation Xrotation Zrotation
                    JOINT leftIndexDistal
                    {
                      OFFSET 0.22505120770060527 -0.007821041598631284 -0.007511611613336286
                      CHANNELS 3 Yrotation Xrotation Zrotation
                      End Site
                      {
                        OFFSET 0.22505120770060527 -0.007821041598631284 -0.007511611613336286
                      }
                    }
                  }
                }
                JOINT leftLittleProximal
                {
                  OFFSET 0.6721063881632002 0.08118279568569564 -0.3209324945517917
                  CHANNELS 3 Yrotation Xrotation Zrotation
                  JOINT leftLittleIntermediate
                  {
                    OFFSET 0.34587329423120616 5.3042709780015684e-8 -5.929537746918179e-8
                    CHANNELS 3 Yrotation Xrotation Zrotation
                    JOINT leftLittleDistal
                    {
                      OFFSET 0.1992782500022232 0.0030983716482184676 0.0038310952896712935
                      CHANNELS 3 Yrotation Xrotation Zrotation
                      End Site
                      {
                        OFFSET 0.1992782500022232 0.0030983716482184676 0.0038310952896712935
                      }
                    }
                  }
                }
                JOINT leftMiddleProximal
                {
                  OFFSET 0.7301229696860206 0.08118412848995638 0.022516891543707507
                  CHANNELS 3 Yrotation Xrotation Zrotation
                  JOINT leftMiddleIntermediate
                  {
                    OFFSET 0.4076277831942017 -0.000001240188283180288 -1.6203245635504349e-7
                    CHANNELS 3 Yrotation Xrotation Zrotation
                    JOINT leftMiddleDistal
                    {
                      OFFSET 0.2514739255593972 0.0000013850839168938478 -1.8644847207816007e-8
                      CHANNELS 3 Yrotation Xrotation Zrotation
                      End Site
                      {
                        OFFSET 0.2514739255593972 0.0000013850839168938478 -1.8644847207816007e-8
                      }
                    }
                  }
                }
                JOINT leftRingProximal
                {
                  OFFSET 0.7218060861525873 0.08118280646416753 -0.1494689818508163
                  CHANNELS 3 Yrotation Xrotation Zrotation
                  JOINT leftRingIntermediate
                  {
                    OFFSET 0.3781267508900358 0.000001373626195677602 -1.4143108284514483e-7
                    CHANNELS 3 Yrotation Xrotation Zrotation
                    JOINT leftRingDistal
                    {
                      OFFSET 0.21814333268795483 -0.0027137626495670197 -0.004991775417842292
                      CHANNELS 3 Yrotation Xrotation Zrotation
                      End Site
                      {
                        OFFSET 0.21814333268795483 -0.0027137626495670197 -0.004991775417842292
                      }
                    }
                  }
                }
                JOINT leftThumbProximal
                {
                  OFFSET 0.10743676110519984 -0.16423092885053192 -0.07708859146227388
                  CHANNELS 3 Yrotation Xrotation Zrotation
                  JOINT leftThumbIntermediate
                  {
                    OFFSET 0.40350402100066307 -0.01735099334274981 0.315629965828783
                    CHANNELS 3 Yrotation Xrotation Zrotation
                    JOINT leftThumbDistal
                    {
                      OFFSET 0.2320014489535681 -0.01842351809041043 0.21271298411519196
                      CHANNELS 3 Yrotation Xrotation Zrotation
                      End Site
                      {
                        OFFSET 0.2320014489535681 -0.01842351809041043 0.21271298411519196
                      }
                    }
                  }
                }
              }
            }
          }
        }
        JOINT rightShoulder
        {
          OFFSET -0.41379931360839656 1.1593397335613034 0
          CHANNELS 3 Yrotation Xrotation Zrotation
          JOINT rightUpperArm
          {
            OFFSET -1.0096991868951024 0 0
            CHANNELS 3 Yrotation Xrotation Zrotation
            JOINT rightLowerArm
            {
              OFFSET -2.4183809676716232 0 0
              CHANNELS 3 Yrotation Xrotation Zrotation
              JOINT rightHand
              {
                OFFSET -2.3615382962601132 0 0
                CHANNELS 3 Yrotation Xrotation Zrotation
                JOINT rightIndexProximal
                {
                  OFFSET -0.7243699271447109 0.08118285989887508 0.2022042461579805
                  CHANNELS 3 Yrotation Xrotation Zrotation
                  JOINT rightIndexIntermediate
                  {
                    OFFSET -0.36553107045252053 -0.010567764853200323 -0.014102670024158437
                    CHANNELS 3 Yrotation Xrotation Zrotation
                    JOINT rightIndexDistal
                    {
                      OFFSET -0.22505120770060527 -0.007821041598631284 -0.007511611613336286
                      CHANNELS 3 Yrotation Xrotation Zrotation
                      End Site
                      {
                        OFFSET -0.22505120770060527 -0.007821041598631284 -0.007511611613336286
                      }
                    }
                  }
                }
                JOINT rightLittleProximal
                {
                  OFFSET -0.6721063881632002 0.08118279568569564 -0.3209324945517917
                  CHANNELS 3 Yrotation Xrotation Zrotation
                  JOINT rightLittleIntermediate
                  {
                    OFFSET -0.34587329423120616 5.3042709780015684e-8 -5.929537746918179e-8
                    CHANNELS 3 Yrotation Xrotation Zrotation
                    JOINT rightLittleDistal
                    {
                      OFFSET -0.1992782500022232 0.0030983716482184676 0.0038310952896712935
                      CHANNELS 3 Yrotation Xrotation Zrotation
                      End Site
                      {
                        OFFSET -0.1992782500022232 0.0030983716482184676 0.0038310952896712935
                      }
                    }
                  }
                }
                JOINT rightMiddleProximal
                {
                  OFFSET -0.7301229696860206 0.08118412848995638 0.022516891543707507
                  CHANNELS 3 Yrotation Xrotation Zrotation
                  JOINT rightMiddleIntermediate
                  {
                    OFFSET -0.4076277831942017 -0.000001240188283180288 -1.6203245635504349e-7
                    CHANNELS 3 Yrotation Xrotation Zrotation
                    JOINT rightMiddleDistal
                    {
                      OFFSET -0.2514739255593972 0.0000013850839168938478 -1.8644847207816007e-8
                      CHANNELS 3 Yrotation Xrotation Zrotation
                      End Site
                      {
                        OFFSET -0.2514739255593972 0.0000013850839168938478 -1.8644847207816007e-8
                      }
                    }
                  }
                }
                JOINT rightRingProximal
                {
                  OFFSET -0.7218060861525873 0.08118280646416753 -0.1494689818508163
                  CHANNELS 3 Yrotation Xrotation Zrotation
                  JOINT rightRingIntermediate
                  {
                    OFFSET -0.3781267508900358 0.000001373626195677602 -1.4143108284514483e-7
                    CHANNELS 3 Yrotation Xrotation Zrotation
                    JOINT rightRingDistal
                    {
                      OFFSET -0.21814333268795483 -0.0027137626495670197 -0.004991775417842292
                      CHANNELS 3 Yrotation Xrotation Zrotation
                      End Site
                      {
                        OFFSET -0.21814333268795483 -0.0027137626495670197 -0.004991775417842292
                      }
                    }
                  }
                }
                JOINT rightThumbProximal
                {
                  OFFSET -0.10743676110519984 -0.16423092885053192 -0.07708859146227388
                  CHANNELS 3 Yrotation Xrotation Zrotation
                  JOINT rightThumbIntermediate
                  {
                    OFFSET -0.40350402100066307 -0.01735099334274981 0.315629965828783
                    CHANNELS 3 Yrotation Xrotation Zrotation
                    JOINT rightThumbDistal
                    {
                      OFFSET -0.2320014489535681 -0.01842351809041043 0.21271298411519196
                      CHANNELS 3 Yrotation Xrotation Zrotation
                      End Site
                      {
                        OFFSET -0.2320014489535681 -0.01842351809041043 0.21271298411519196
                      }
                    }
                  }
                }
              }
            }
          }
        }
      }
    }
  }
  JOINT leftUpperLeg
  {
    OFFSET 0.8487163290887698 -0.43932186100277326 0
    CHANNELS 3 Yrotation Xrotation Zrotation
    JOINT leftLowerLeg
    {
      OFFSET 0 -3.882816707004296 0
      CHANNELS 3 Yrotation Xrotation Zrotation
      JOINT leftFoot
      {
        OFFSET 0 -4.570431027442807 0.004629272230691511
        CHANNELS 3 Yrotation Xrotation Zrotation
        JOINT leftToes
        {
          OFFSET 0 -0.698875637876343 1.214565366696912
          CHANNELS 3 Yrotation Xrotation Zrotation
          End Site
          {
            OFFSET 0 -0.698875637876343 1.214565366696912
          }
        }
      }
    }
  }
  JOINT rightUpperLeg
  {
    OFFSET -0.8487163290887698 -0.43932186100277326 0
    CHANNELS 3 Yrotation Xrotation Zrotation
    JOINT rightLowerLeg
    {
      OFFSET 0 -3.882816707004296 0
      CHANNELS 3 Yrotation Xrotation Zrotation
      JOINT rightFoot
      {
        OFFSET 0 -4.570431027442807 0.004629272230691511
        CHANNELS 3 Yrotation Xrotation Zrotation
        JOINT rightToes
        {
          OFFSET 0 -0.698875637876343 1.214565366696912
          CHANNELS 3 Yrotation Xrotation Zrotation
          End Site
          {
            OFFSET 0 -0.698875637876343 1.214565366696912
          }
        }
      }
    }
  }
}
MOTION
Frames: 4
Frame Time: 0.03333333333333333
-0.5119686722755432 -8.658987563180286 -1.1105073690414429 24.566835302721614 -76.19346465400535 -18.108935574054442 -0.34731173042903013 12.637191284213445 -0.8860049815251041 -5.165889409564795 50.3865536437706 -6.992918955376848 0 0 0 -0.6195020881546288 20.62969943776465 3.408642878081717 -5.491288518285615 0.09501787334621573 4.759104237465199 0 0 0 0 0 0 -12.305551946990299 2.6228110347878992 11.8274284501609 -26.674159275731768 57.478570825972945 -104.72132672506469 -61.421216289932296 -0.9480592178244108 4.6207111123120574 14.167796118131783 40.94736289307144 92.95468356050719 -12.581572271379846 -5.488636512037817 -18.31068611248133 -0.7218114132470157 -1.9357678748700302 -23.269734793585513 -1.281281483810888e-10 1.793762613445802e-24 1.6042536111691759e-12 19.851189212634615 16.252022952372084 -39.34142044449085 -4.833190578249005 -0.2439070320602042 -20.66924242224679 -0.00001904519644414877 0.000006429576069444102 0.0000018414009108281415 -3.6004606203800353 -2.419965396468304 -30.46194897807635 -0.5086515443925109 -0.741226294028654 -10.84348185313035 1.139979627027678e-10 6.3611093629270335e-15 -1.43444452663829e-12 6.411572121731904 3.8824358980933305 -35.673979951813344 -1.8484687127248371 0.2865040174792377 -13.88021865390485 -4.406931275537185e-7 -7.156672446509608e-7 0.0000010327646788383806 -10.176460303133423 -26.054670875830052 -11.33378588743694 4.603391719969217 -9.07534411236667 0.8322110623234188 0.000005755597296447236 -0.0000072741461573361696 0.000004142070253660616 1.8471586577429997 1.4354984209505695 -12.706523584282847 42.07525364874862 32.28788891462953 101.4924148140911 45.68617661573015 -5.148852008106686 -6.783060669332365 11.94832334587392 54.39353491955583 -57.86163906282304 6.142227337904687 -5.88384289454853 11.299868120303946 0.16988906363002898 -0.14217501579147676 14.92584448632783 3.933694872703174e-10 3.1805546814635168e-15 -4.874754472204794e-12 -15.801444910403102 5.164870888147132 6.893167640198794 7.630301703237344 0.766597520708597 25.42364956109462 1.6628260911929426e-9 -3.1805543023118527e-15 -2.179830267765673e-11 0.20599896870893245 -2.677931569170138 18.40234793524111 -0.16924101425977037 -0.23445708950816152 4.315374768016454 0.0000012968432333744267 0.000003079465356356379 0.00001203905471449249 -7.010585738597845 1.344203576624165 14.373468904186536 1.9170716978315887 0.22380929972064692 11.967082984844392 -4.3803240153668535e-10 2.0219334966109398e-23 5.2894833502657416e-12 13.161613416744808 -8.465929955440401 2.165453540516615 -15.225518471941763 -28.371289752678294 -8.557805042244029 0.0000010580100390114665 -0.000004210584999275591 -0.00001868279763174462 20.176736344185052 -77.7784997790867 -20.750232573562553 -15.906695967909442 78.49119128974144 -18.363076628398538 1.3039791059105297 -14.717940562595405 -0.11942179594857188 -0.02478057376861928 0.12624618382306224 0.061478759046999794 -0.6255425731825798 -45.536082518060255 -4.7094728674087545 -4.4827074663581294 62.75625386835075 -1.8998795060345306 -9.909281627954456 21.864282854475704 -5.741066453393984 -0.1625535949421392 -3.058228193134501 0.4443786085587443
-0.5164438486099243 -8.685936730431873 -1.0621060132980347 27.746776348767604 -77.18018644038611 -20.156805734498693 -0.49315615405129226 12.808259899640174 -0.8686160215641295 -6.333428248961447 51.018238943365496 -7.517623990052549 0 0 0 -0.6669061228714932 23.653786077801467 5.477000267872136 -7.118959251122557 0.8084298716381634 5.206109382014529 0 0 0 0 0 0 -12.305551946990299 2.6228110347878992 11.8274284501609 -25.735118037650395 58.34721656933063 -103.37352214523719 -62.225300100243615 -0.9848575084768021 4.29559217885786 13.088457722595956 41.56088531771614 91.28523154020013 -13.658793233454801 -5.28769956124909 -16.689833888519093 -0.7049624654278349 -1.8990683562161228 -22.99243704790287 -1.281281483810888e-10 1.793762613445802e-24 1.6042536111691759e-12 20.624012890480085 14.903044805530861 -35.94171739197334 -4.844598915057209 -0.2346737097057823 -20.80046858996615 -0.00001904519644414877 0.000006429576069444102 0.0000018414009108281415 -3.8788835065122473 -2.291641457405341 -28.442127094159257 -0.4885333302301914 -0.7221111980367898 -10.610739853972502 1.139979627027678e-10 6.3611093629270335e-15 -1.43444452663829e-12 6.303892033096879 3.4428578292090326 -33.083719683913 -1.8445267892395434 0.2856932692533894 -13.839484703402494 -4.406931275537185e-7 -7.156672446509608e-7 0.0000010327646788383806 -10.176460303133423 -26.054670875830052 -11.33378588743694 4.603391719969217 -9.07534411236667 0.8322110623234188 0.000005755597296447236 -0.0000072741461573361696 0.000004142070253660616 1.8471586577429997 1.4354984209505695 -12.706523584282847 41.11934457071763 35.65839914050059 101.7788948526003 50.96294199570583 -2.9344775978175015 -6.1457861147888835 8.166704247826305 54.20258709448845 -59.06486174123037 6.079487047956589 -5.8906505057971685 11.457492844980756 0.16988906363002898 -0.14217501579147676 14.92584448632783 3.933694872703174e-10 3.1805546814635168e-15 -4.874754472204794e-12 -15.954424535048576 5.101550378217013 6.470146620414082 7.622412039408946 0.7654825527576907 25.374068966680714 1.6628260911929426e-9 -3.1805543023118527e-15 -2.179830267765673e-11 0.19321400479887788 -2.6733497070038204 18.38507871180182 -0.17452854022195483 -0.2295318957715878 4.245244794214702 0.0000012968432333744267 0.000003079465356356379 0.00001203905471449249 -7.032936614170247 1.3362114563644443 14.069235463069493 1.9257644154700055 0.22516131402759745 12.039132931704565 -4.3803240153668535e-10 2.0219334966109398e-23 5.2894833502657416e-12 13.5079634161116 -7.913758440374454 2.1701951203686654 -15.768725226545001 -29.188092257535992 -8.824555302123281 0.0000010580100390114665 -0.000004210584999275591 -0.00001868279763174462 37.68327836184161 -80.46964025271474 -34.95456528505188 -17.852301234100036 81.0480978670105 -20.447615414196093 3.778670729795742 -16.41819885271002 1.105548105515424 -0.024735674807596156 0.42356918159345636 0.0617918198047065 -0.9440526537266193 -45.377063474513875 -6.16837402018932 -4.25028650219191 64.37032095917125 -1.6916764789361136 -9.889208874568729 21.193379205509988 -6.238256052523532 -0.16337555693680372 -2.908775485052053 0.4446330988068437
-0.5164930820465088 -8.701059620904285 -1.0391006469726562 28.989103027865283 -77.31184609469874 -20.867964000722292 -0.5678615822665378 12.794116502590116 -0.8929883191363996 -6.865831188803934 50.93264644005235 -7.840763832903734 0 0 0 -0.5992118500011343 24.252103524681072 5.992430847570899 -7.1043095009247565 1.0452458599231256 5.17871949758759 0 0 0 0 0 0 -12.305551946990299 2.6228110347878992 11.8274284501609 -25.155992497568715 59.04852528077412 -102.69730123250287 -62.74573510308128 -0.8597791805429538 3.99769613432786 12.763725581106788 41.76719300182203 90.68204392923845 -13.895814171271335 -5.2515692618409995 -16.379169829832282 -0.6975945239685144 -1.8831143769124508 -22.871662955350274 -1.281281483810888e-10 1.793762613445802e-24 1.6042536111691759e-12 20.810846437301407 14.572578972974076 -35.09507956718161 -4.847850496028896 -0.23204958795795036 -20.83796972189193 -0.00001904519644414877 0.000006429576069444102 0.0000018414009108281415 -3.9505979844104426 -2.2527742280073215 -27.91035997897787 -0.48457770701819985 -0.7184071285686708 -10.565380629892683 1.139979627027678e-10 6.3611093629270335e-15 -1.43444452663829e-12 6.263258191660742 3.3292236517221445 -32.42001939051554 -1.8427813297595919 0.2853233672286617 -13.82122157449272 -4.406931275537185e-7 -7.156672446509608e-7 0.0000010327646788383806 -10.176460303133423 -26.054670875830052 -11.33378588743694 4.603391719969217 -9.07534411236667 0.8322110623234188 0.000005755597296447236 -0.0000072741461573361696 0.000004142070253660616 1.8471586577429997 1.4354984209505695 -12.706523584282847 40.760095510384176 37.01563681409053 101.98229359186833 52.854981559285726 -2.12724310208515 -5.791943840786443 6.906820886074669 54.14273268516722 -59.41794201368299 6.050259453662604 -5.833083043290967 11.243197102005144 0.16988906363002898 -0.14217501579147676 14.92584448632783 3.933694872703174e-10 3.1805546814635168e-15 -4.874754472204794e-12 -16.15770466124534 5.020040451594973 5.942246972460869 7.6102702109876255 0.7637471566561823 25.29805399898879 1.6628260911929426e-9 -3.1805543023118527e-15 -2.179830267765673e-11 0.16766066198491475 -2.636792642778231 18.060437384377472 -0.1754916267595458 -0.22865292877660148 4.232649422439299 0.0000012968432333744267 0.000003079465356356379 0.00001203905471449249 -7.037634713165527 1.3229400272962428 13.67498065812841 1.9313324258043645 0.22602005688942625 12.085217134886527 -4.3803240153668535e-10 2.0219334966109398e-23 5.2894833502657416e-12 13.596081539235502 -7.512359714684568 2.1987907178274875 -16.1233953952455 -29.708152072001848 -8.98347106147859 0.0000010580100390114665 -0.000004210584999275591 -0.00001868279763174462 42.30019292850796 -81.1630207049171 -38.81543807112273 -17.882373047584363 81.64463806953958 -20.5079532036225 4.389956303147481 -17.00070622058873 1.527095350438255 -0.024297306433142783 0.7588988951710469 0.060998350532664586 -0.9857233437350414 -45.56072383433858 -6.878653589631726 -4.007440501601751 64.90391819966635 -1.4679056811770386 -9.99105533875373 21.350151011290716 -6.686189432602477 -0.16302254458261178 -2.962173963763242 0.4445317586593161
-0.5197916626930237 -8.77151433758672 -0.9676926136016846 32.38192194883661 -76.41905853539586 -22.454102615380602 -0.7906265997595754 12.543530636649352 -0.9305031995641265 -8.288231778422018 49.844660732780675 -8.557384381890758 0 0 0 -0.45024392317621253 23.779270918836296 6.537906764158067 -6.238494370458783 1.1818429224452454 5.26504125982039 0 0 0 0 0 0 -12.305551946990299 2.6228110347878992 11.8274284501609 -22.954941358637363 61.13906298477466 -99.95765850656925 -63.964697379918164 -0.5556328051676627 3.090001033709256 11.44784523051609 42.56819834416905 88.98982589405757 -14.485904341949682 -5.060600423332786 -15.363357958986688 -0.6859644792968523 -1.858187123420139 -22.682826439859063 -1.281281483810888e-10 1.793762613445802e-24 1.6042536111691759e-12 21.21770113393063 13.879779595261759 -33.270673172877345 -4.849550595428629 -0.2306712125293963 -20.857566529387977 -0.00001904519644414877 0.000006429576069444102 0.0000018414009108281415 -4.080069320186623 -2.1100094264650733 -26.48221964410962 -0.47180481396627877 -0.7063557156393818 -10.418072475941324 1.139979627027678e-10 6.3611093629270335e-15 -1.43444452663829e-12 6.045751383959515 2.970491472077756 -30.672464062628286 -1.832860383935988 0.2832513398052675 -13.718372266879292 -4.406931275537185e-7 -7.156672446509608e-7 0.0000010327646788383806 -10.176460303133423 -26.054670875830052 -11.33378588743694 4.603391719969217 -9.07534411236667 0.8322110623234188 0.000005755597296447236 -0.0000072741461573361696 0.000004142070253660616 1.8471586577429997 1.4354984209505695 -12.706523584282847 40.02079931893585 40.57826264055786 103.16636350630216 57.181084994322404 -0.23059880126537133 -4.5716794447229745 3.6387234646363305 53.95831672535148 -61.25587750824293 6.1607201203773245 -5.715466309816017 10.459355404182109 0.16988906363002898 -0.14217501579147676 14.92584448632783 3.933694872703174e-10 3.1805546814635168e-15 -4.874754472204794e-12 -16.885173981420973 4.758242312064122 4.29867027372419 7.620973733607906 0.7652762946585123 25.3651530846644 1.6628260911929426e-9 -3.1805543023118527e-15 -2.179830267765673e-11 0.041764524207220426 -2.496600427768798 16.874721638142155 -0.1722399889281809 -0.23169113349338255 4.275952960891548 0.0000012968432333744267 0.000003079465356356379 0.00001203905471449249 -7.023272957346968 1.2781238278676068 12.378136653843907 1.9418951964877251 0.22763994499502543 12.172537118489428 -4.3803240153668535e-10 2.0219334966109398e-23 5.2894833502657416e-12 13.714052089339186 -6.2438502094462995 2.294375025084033 -17.230412863170216 -31.270007420987344 -9.4131569115151 0.0000010580100390114665 -0.000004210584999275591 -0.00001868279763174462 50.66409822325168 -83.37028089628497 -46.09570564760277 -15.215186824911228 82.94789784401175 -17.90077805026583 4.5253056248126935 -18.48040611031268 1.7029534706052836 -0.024283709277293758 0.7769171117932412 0.060820133686297864 -0.9616391692032997 -47.32610761824232 -9.01592900375323 -2.7473376029659726 66.12148644266836 -0.29330879181561337 -9.50404361787267 22.96990563768028 -8.547687931220892 -0.1601290346288186 -3.4187069668060337 0.4436563036880924
